<svg width="27" height="28" viewBox="0 0 27 28" fill="none" xmlns="http://www.w3.org/2000/svg">
<path d="M16.1188 18.6158L15.5494 19.258C15.5494 19.258 14.1962 20.7844 10.5024 16.618C6.80859 12.4515 8.16183 10.9252 8.16183 10.9252L8.52036 10.5208C9.40356 9.52456 9.48683 7.92516 8.71626 6.75754L7.14002 4.36905C6.18628 2.92388 4.34335 2.73298 3.25019 3.96598L1.28816 6.17905C0.74613 6.79043 0.382899 7.58297 0.42695 8.46215C0.539639 10.7114 1.43674 15.5507 6.44263 21.1972C11.7511 27.1848 16.7321 27.4228 18.769 27.2075C19.4133 27.1393 19.9735 26.7671 20.425 26.2578L22.2008 24.2549C23.3994 22.9029 23.0614 20.5851 21.5278 19.6394L19.1396 18.1666C18.1326 17.5456 16.9058 17.728 16.1188 18.6158Z" fill="#FFA63E"/>
<path d="M21.2359 12.3335C24.0319 12.3335 26.2985 9.76385 26.2985 6.59401C26.2985 3.42417 24.0319 0.854492 21.2359 0.854492C18.44 0.854492 16.1733 3.42417 16.1733 6.59401C16.1733 7.51215 16.3635 8.37994 16.7016 9.14952C16.7915 9.35403 16.8214 9.58778 16.7693 9.8085L16.4678 11.0861C16.3369 11.6408 16.7844 12.1481 17.2736 11.9997L18.4006 11.6579C18.5953 11.5989 18.8014 11.6327 18.9819 11.7347C19.6606 12.118 20.4261 12.3335 21.2359 12.3335Z" fill="#FFA63E"/>
</svg>
