<svg width="20" height="28" viewBox="0 0 20 28" fill="none" xmlns="http://www.w3.org/2000/svg">
<path fill-rule="evenodd" clip-rule="evenodd" d="M9.72518 7.88529C8.4152 7.88529 7.35346 9.03223 7.35346 10.4473C7.35346 11.8624 8.4152 13.0093 9.72518 13.0093C11.0352 13.0093 12.0969 11.8624 12.0969 10.4473C12.0969 9.03223 11.0352 7.88529 9.72518 7.88529ZM9.72518 14.7174C7.54241 14.7174 5.77231 12.8061 5.77231 10.4473C5.77231 8.08855 7.54241 6.17728 9.72518 6.17728C11.908 6.17728 13.6781 8.08855 13.6781 10.4473C13.6781 12.8061 11.908 14.7174 9.72518 14.7174ZM9.72518 0.199219C4.48604 0.199219 0.238281 4.78781 0.238281 10.4473C0.238281 14.7327 8.14799 27.5369 9.72518 27.5275C11.2779 27.5369 19.2121 14.6747 19.2121 10.4473C19.2121 4.78781 14.9643 0.199219 9.72518 0.199219Z" fill="#FFA63E"/>
</svg>
