<svg width="91" height="75" viewBox="0 0 91 75" fill="none" xmlns="http://www.w3.org/2000/svg">
<path d="M7.63779 11.496C13.9513 4.51218 23.5048 0.972046 36.0283 0.972046H40.5283V13.9158L36.9103 14.6551C30.7453 15.9132 26.4568 18.388 24.1618 22.02C22.9643 23.9766 22.2852 26.2169 22.1908 28.5217H36.0283C37.2218 28.5217 38.3664 29.0055 39.2103 29.8666C40.0542 30.7277 40.5283 31.8956 40.5283 33.1134V65.2547C40.5283 70.3192 36.4918 74.4379 31.5283 74.4379H4.52829C3.33482 74.4379 2.19023 73.9541 1.34631 73.093C0.502401 72.2319 0.0282952 71.064 0.0282952 69.8463V46.8882L0.0417953 33.4853C0.00129534 32.9756 -0.853705 20.8997 7.63779 11.496ZM81.0283 74.4379H54.0283C52.8348 74.4379 51.6902 73.9541 50.8463 73.093C50.0024 72.2319 49.5283 71.064 49.5283 69.8463V46.8882L49.5418 33.4853C49.5013 32.9756 48.6463 20.8997 57.1378 11.496C63.4513 4.51218 73.0048 0.972046 85.5283 0.972046H90.0283V13.9158L86.4103 14.6551C80.2453 15.9132 75.9568 18.388 73.6618 22.02C72.4643 23.9766 71.7851 26.2169 71.6908 28.5217H85.5283C86.7218 28.5217 87.8664 29.0055 88.7103 29.8666C89.5542 30.7277 90.0283 31.8956 90.0283 33.1134V65.2547C90.0283 70.3192 85.9918 74.4379 81.0283 74.4379Z" fill="#FFA63E"/>
</svg>
