<svg width="40" height="40" viewBox="0 0 40 40" fill="none" xmlns="http://www.w3.org/2000/svg">
<path d="M39.3547 31.6706H36.743C36.6018 32.8941 35.8018 34.4235 33.8018 34.4235C31.9665 34.4235 30.6488 33.1529 29.3782 31.2235C31.4764 29.6196 33.1725 27.5494 34.3323 25.1767C35.4922 22.8039 36.0839 20.1939 36.0606 17.5529C36.0606 7.05882 27.4018 0 18.343 0C9.40178 0 0.672363 7.12941 0.672363 17.5765C0.672363 27.9294 9.40178 35.0588 18.343 35.0588C19.8959 35.0588 21.4488 34.8471 22.9312 34.4471C24.6724 37.4353 27.0018 40 31.4018 40C38.6959 40 39.5194 33.2706 39.3547 31.6706ZM26.5312 26.5412C24.8135 23.9294 22.6253 21.8824 18.39 21.8824C15.6606 21.8824 13.543 22.7765 12.2253 23.9059L13.3077 26.0706C13.8724 25.8118 14.4606 25.7176 15.0724 25.7176C18.2488 25.7176 19.8724 28.4706 21.2606 31.2C20.3665 31.4588 19.4018 31.5765 18.343 31.5765C11.6371 31.5765 8.74295 26.8471 8.74295 17.5765C8.74295 8.25882 11.6371 3.48235 18.343 3.48235C25.143 3.48235 28.0606 8.25882 28.0606 17.5765C28.0371 21.2941 27.5665 24.3059 26.5312 26.5412Z" fill="black"/>
</svg>
