<svg width="75" height="83" viewBox="0 0 75 83" fill="none" xmlns="http://www.w3.org/2000/svg">
<path d="M55.3712 34.7545C52.0682 34.7545 49.3909 37.4319 49.3909 40.7348V25.765C49.3909 23.8255 47.8188 22.2535 45.8794 22.2535C43.9399 22.2535 42.3679 23.8255 42.3679 25.765V24.2183C42.3679 22.2788 40.7958 20.7068 38.8563 20.7068C36.9169 20.7068 35.3448 22.2788 35.3448 24.2183V25.765C35.3448 23.8255 33.7728 22.2535 31.8333 22.2535C29.8939 22.2535 28.3218 23.8255 28.3218 25.765V30.7912C28.3218 28.8518 26.7498 27.2797 24.8103 27.2797C22.8709 27.2797 21.2988 28.8518 21.2988 30.7912V56.356C21.2988 65.0676 28.3608 72.1291 37.0719 72.1291H41.3894C50.1006 72.1291 57.1625 65.0676 57.1625 56.356C57.1625 48.3306 57.1625 44.5988 57.1625 36.5442C57.1611 35.5557 56.3596 34.7545 55.3712 34.7545Z" fill="black"/>
<path d="M55.3726 34.7546C52.0696 34.7546 49.3923 37.432 49.3923 40.7349V48.158H21.2988V56.3561C21.2988 61.2809 23.6043 65.9338 27.5468 68.9264C27.5474 68.9267 27.5478 68.9271 27.5485 68.9278V81.4083H50.1666V69.4623C54.3962 66.6293 57.1625 61.781 57.1625 56.3561C57.1625 52.6994 57.1625 40.9452 57.1625 36.5443C57.1625 35.5558 56.361 34.7546 55.3726 34.7546Z" fill="black"/>
<path d="M39.2293 64.1162C38.8456 64.1162 38.5342 63.8047 38.5342 63.421C38.5342 57.2961 42.7738 52.0353 48.6958 50.6965V40.7348C48.6958 37.054 51.6904 34.0593 55.3712 34.0593C56.7413 34.0593 57.856 35.174 57.856 36.5441V56.3556C57.856 56.7393 57.5445 57.0508 57.1608 57.0508C56.7771 57.0508 56.4657 56.7393 56.4657 56.3556V36.5441C56.4657 35.9404 55.9746 35.4496 55.3712 35.4496C52.4568 35.4496 50.086 37.8204 50.086 40.7348V51.2644C50.086 51.6009 49.8452 51.889 49.5139 51.9484C43.9573 52.9491 39.9241 57.7741 39.9241 63.421C39.9245 63.8047 39.613 64.1162 39.2293 64.1162Z" fill="black"/>
<path d="M28.3221 47.1132C27.9384 47.1132 27.627 46.8018 27.627 46.4181V30.7913C27.627 30.4076 27.9384 30.0962 28.3221 30.0962C28.7058 30.0962 29.0172 30.4076 29.0172 30.7913V46.4181C29.0172 46.8018 28.7062 47.1132 28.3221 47.1132Z" fill="black"/>
<path d="M35.3446 47.1132C34.9608 47.1132 34.6494 46.8018 34.6494 46.4181V25.7647C34.6494 25.381 34.9608 25.0696 35.3446 25.0696C35.7283 25.0696 36.0397 25.381 36.0397 25.7647V46.4177C36.0397 46.8018 35.7286 47.1132 35.3446 47.1132Z" fill="black"/>
<path d="M42.368 47.1132C41.9843 47.1132 41.6729 46.8018 41.6729 46.4181V25.7647C41.6729 25.381 41.9843 25.0696 42.368 25.0696C42.7517 25.0696 43.0631 25.381 43.0631 25.7647V46.4177C43.0631 46.8018 42.7521 47.1132 42.368 47.1132Z" fill="black"/>
<path d="M28.3221 47.1132C27.9384 47.1132 27.627 46.8018 27.627 46.4181V30.7913C27.627 30.4076 27.9384 30.0962 28.3221 30.0962C28.7058 30.0962 29.0172 30.4076 29.0172 30.7913V46.4181C29.0172 46.8018 28.7062 47.1132 28.3221 47.1132Z" fill="black"/>
<path d="M35.3446 47.1132C34.9608 47.1132 34.6494 46.8018 34.6494 46.4181V25.7647C34.6494 25.381 34.9608 25.0696 35.3446 25.0696C35.7283 25.0696 36.0397 25.381 36.0397 25.7647V46.4177C36.0397 46.8018 35.7286 47.1132 35.3446 47.1132Z" fill="black"/>
<path d="M42.368 47.1132C41.9843 47.1132 41.6729 46.8018 41.6729 46.4181V25.7647C41.6729 25.381 41.9843 25.0696 42.368 25.0696C42.7517 25.0696 43.0631 25.381 43.0631 25.7647V46.4177C43.0631 46.8018 42.7521 47.1132 42.368 47.1132Z" fill="black"/>
<path d="M45.4884 47.1132H25.6619C25.2782 47.1132 24.9668 46.8018 24.9668 46.418C24.9668 46.0343 25.2782 45.7229 25.6619 45.7229H45.488C45.8718 45.7229 46.1832 46.0343 46.1832 46.418C46.1832 46.8018 45.8721 47.1132 45.4884 47.1132Z" fill="black"/>
<path d="M50.1661 82.1035H27.548C27.1643 82.1035 26.8528 81.7921 26.8528 81.4084V69.2685C22.8766 66.1219 20.6035 61.4353 20.6035 56.3559V30.791C20.6035 28.4713 22.4908 26.584 24.8105 26.584C25.8928 26.584 26.881 26.9949 27.6272 27.6688V25.7645C27.6272 23.4448 29.5145 21.5578 31.8342 21.5578C33.0288 21.5578 34.1087 22.0583 34.8755 22.8609C35.4413 21.2054 37.0127 20.0115 38.8576 20.0115C40.7025 20.0115 42.2738 21.2054 42.8397 22.8609C43.6064 22.0587 44.6863 21.5578 45.8809 21.5578C48.2006 21.5578 50.0879 23.4448 50.0879 25.7645V36.6608C51.3096 35.0793 53.2244 34.0589 55.3731 34.0589C56.7432 34.0589 57.8579 35.1735 57.8579 36.5437V56.3552C57.8579 61.73 55.2497 66.7382 50.862 69.827V81.4084C50.8613 81.7921 50.5502 82.1035 50.1661 82.1035ZM28.2431 80.7133H49.471V69.4621C49.471 69.2302 49.5864 69.0137 49.7789 68.8848C53.9668 66.0746 56.4672 61.3908 56.4672 56.3559V36.5444C56.4672 35.9406 55.9761 35.4499 55.3727 35.4499C52.4583 35.4499 50.0876 37.8206 50.0876 40.735C50.0876 41.1187 49.7761 41.4302 49.3924 41.4302C49.0087 41.4302 48.6973 41.1187 48.6973 40.735V25.7652C48.6973 24.2122 47.4339 22.9488 45.8809 22.9488C44.3276 22.9488 43.0642 24.2122 43.0642 25.7652C43.0642 26.1489 42.7528 26.4603 42.3691 26.4603C41.9854 26.4603 41.6739 26.1489 41.6739 25.7652V24.2188C41.6739 22.6659 40.4105 21.4021 38.8572 21.4021C37.3039 21.4021 36.0405 22.6655 36.0405 24.2188V25.7652C36.0405 26.1489 35.7291 26.4603 35.3454 26.4603C34.9616 26.4603 34.6502 26.1489 34.6502 25.7652C34.6502 24.2122 33.3868 22.9488 31.8335 22.9488C30.2802 22.9488 29.0168 24.2122 29.0168 25.7652V30.7914C29.0168 31.1751 28.7054 31.4865 28.3217 31.4865C27.9379 31.4865 27.6265 31.1751 27.6265 30.7914C27.6265 29.2384 26.3631 27.9747 24.8098 27.9747C23.2565 27.9747 21.9931 29.2381 21.9931 30.7914V56.3562C21.9931 61.1131 24.1706 65.4935 27.9675 68.3742C28.1406 68.5055 28.2424 68.7106 28.2424 68.9278V80.7133H28.2431Z" fill="white"/>
<path d="M22.6649 16.5265L18.1065 8.63109C17.7224 7.96619 17.9504 7.11603 18.6153 6.73197C19.2806 6.3479 20.1307 6.57591 20.5144 7.24081L25.0728 15.1362C25.4569 15.8011 25.2289 16.6513 24.564 17.0353C23.8994 17.4191 23.0489 17.1918 22.6649 16.5265Z" fill="black"/>
<path d="M36.2994 11.0161L36.2994 1.89929C36.2992 1.13143 36.9218 0.509179 37.6896 0.50902C38.4578 0.509034 39.08 1.13157 39.0799 1.89925L39.0799 11.0161C39.08 11.7839 38.4575 12.4062 37.6896 12.4063C36.9222 12.4064 36.2993 11.7843 36.2994 11.0161Z" fill="black"/>
<path d="M49.8966 17.0356C49.2317 16.6515 49.0037 15.8014 49.3877 15.1365L53.9461 7.24105C54.3298 6.57615 55.1803 6.34815 55.8452 6.73221C56.5101 7.11628 56.7381 7.96643 56.3541 8.63134L51.7957 16.5267C51.412 17.1916 50.5618 17.4197 49.8966 17.0356Z" fill="black"/>
<path d="M13.3926 26.8167L5.49716 22.2583C4.83226 21.8743 4.60425 21.0241 4.98831 20.3592C5.37203 19.6943 6.22254 19.4663 6.88744 19.8504L14.7829 24.4088C15.4478 24.7928 15.6758 25.643 15.2917 26.3079C14.9076 26.9724 14.0575 27.2004 13.3926 26.8167Z" fill="black"/>
<path d="M59.1688 26.308C58.7851 25.6431 59.0128 24.7929 59.6777 24.4089L67.5731 19.8501C68.2383 19.4661 69.0881 19.6941 69.4722 20.359C69.8559 21.0239 69.6283 21.874 68.9634 22.2581L61.068 26.8165C60.4034 27.2002 59.5532 26.9732 59.1688 26.308Z" fill="black"/>
<path d="M73.0696 40.3643H63.9528C63.185 40.3643 62.5625 39.7418 62.5625 38.974C62.5625 38.2062 63.185 37.5837 63.9528 37.5837H73.0696C73.8373 37.5837 74.4598 38.2062 74.4598 38.974C74.4598 39.7418 73.8373 40.3643 73.0696 40.3643Z" fill="black"/>
<path d="M10.5071 40.3643H1.39028C0.622499 40.3643 0 39.7418 0 38.974C0 38.2062 0.622499 37.5837 1.39028 37.5837H10.5071C11.2748 37.5837 11.8973 38.2062 11.8973 38.974C11.8973 39.7418 11.2748 40.3643 10.5071 40.3643Z" fill="black"/>
</svg>
