<svg width="72" height="72" viewBox="0 0 72 72" fill="none" xmlns="http://www.w3.org/2000/svg">
<path fill-rule="evenodd" clip-rule="evenodd" d="M9.32037 28.3261C9.43006 30.9305 8.86334 33.1875 7.53584 35.4291L3.91475 41.5505C3.66022 41.9808 3.60397 42.4224 3.74319 42.9033C3.90209 43.449 4.15803 43.7879 4.50537 43.9088L6.86365 44.7286C7.42194 44.9227 7.82975 45.3615 7.98022 45.9352C8.13069 46.5075 7.99287 47.0897 7.60194 47.5341L7.12944 48.0713C7.08162 48.1247 7.07037 48.1641 7.0774 48.2344C7.08584 48.3047 7.10694 48.3399 7.16319 48.3821L8.07584 49.0416C8.48647 49.3383 8.73959 49.7785 8.79162 50.2805C8.84225 50.784 8.68194 51.2663 8.34162 51.639L8.10819 51.8935C8.05615 51.9497 8.04209 51.9961 8.05475 52.0707C8.0674 52.1452 8.09553 52.1846 8.16303 52.2211L9.18678 52.7766C9.96303 53.1971 10.3033 54.1336 9.9785 54.9549L9.78865 55.4358V57.3075C9.78865 59.251 11.3693 60.8302 13.3127 60.8302H17.246C21.2805 60.8302 24.5641 64.1138 24.5641 68.1483V68.7727H44.7101V53.3841C44.7101 50.6672 45.5693 48.3413 47.3355 46.2769C48.4774 44.9424 49.4505 43.4841 50.2465 41.9316C50.2085 41.9316 50.1719 41.933 50.1354 41.933C39.3129 41.933 30.5069 33.1285 30.5069 22.306C30.5069 17.6035 32.1705 13.2835 34.938 9.90005C33.4376 9.58786 31.9019 9.42896 30.3565 9.42896C21.8008 9.42896 13.8865 14.4183 10.1937 22.1415C9.47365 23.6475 9.18397 25.0622 9.25428 26.73L9.32037 28.3261ZM49.6938 34.7246C37.3483 27.1547 36.8126 20.2261 37.1557 17.5993C37.5185 14.8177 39.3185 12.6183 41.854 11.8618C44.6243 11.0335 47.666 12.0165 50.1354 14.4985C52.6047 12.0165 55.6451 11.0321 58.4168 11.8618C60.9508 12.6197 62.7508 14.8177 63.1151 17.5993C63.4568 20.2261 62.9224 27.1547 50.5755 34.7246C50.4405 34.8075 50.2872 34.8497 50.1354 34.8497C49.9821 34.8497 49.8288 34.809 49.6938 34.7246ZM32.1944 22.306C32.1944 12.4144 40.2424 4.36646 50.1354 4.36646C60.0269 4.36646 68.0749 12.4144 68.0749 22.306C68.0749 32.1975 60.0269 40.2455 50.1354 40.2455C40.2424 40.2455 32.1944 32.1975 32.1944 22.306ZM50.6472 20.8477L52.5246 24.6741C52.6666 24.9624 52.9605 25.1466 53.2826 25.1466H59.0651C57.1301 27.8255 54.094 30.5283 50.1354 33.0132C46.1754 30.5283 43.1407 27.8255 41.2057 25.1466H44.7354C45.0912 25.1466 45.409 24.923 45.5299 24.5883L45.9321 23.469L46.9783 26.7525C47.0894 27.0985 47.4087 27.3347 47.7715 27.3404H47.7827C48.1413 27.3404 48.4605 27.114 48.5801 26.775L50.6472 20.8477ZM50.4644 17.8215C50.1255 17.8426 49.8316 18.0647 49.7191 18.3854L47.8193 23.8318L46.7843 20.5847C46.6732 20.2402 46.3568 20.004 45.9954 19.9969C45.6283 19.9927 45.3077 20.2149 45.1854 20.5552L44.1419 23.4577H40.1299C39.0555 21.5044 38.5971 19.5933 38.8291 17.8158C39.109 15.6727 40.4196 14.0499 42.3363 13.4761C42.8201 13.3313 43.3165 13.261 43.8185 13.261C45.769 13.261 47.8066 14.3283 49.4955 16.2886C49.6558 16.4743 49.8893 16.5825 50.1354 16.5825C50.3801 16.5825 50.6135 16.4757 50.7738 16.2886C52.8987 13.8221 55.5747 12.7702 57.933 13.4761C59.8497 14.0499 61.1618 15.6713 61.4416 17.8158C61.6722 19.5919 61.2152 21.5044 60.1408 23.4577H53.8085L51.273 18.2911C51.124 17.9874 50.8047 17.8004 50.4644 17.8215Z" fill="black"/>
</svg>
