<svg width="80" height="80" viewBox="0 0 80 80" fill="none" xmlns="http://www.w3.org/2000/svg">
<path d="M40.0004 13.8994C38.5781 13.8988 37.1875 14.32 36.0046 15.1097C34.8217 15.8995 33.8996 17.0223 33.3549 18.3361C32.8102 19.65 32.6673 21.0959 32.9444 22.4909C33.2215 23.886 33.9061 25.1675 34.9116 26.1735C35.9171 27.1794 37.1984 27.8646 38.5933 28.1423C39.9882 28.42 41.4342 28.2778 42.7483 27.7336C44.0624 27.1895 45.1856 26.2678 45.9758 25.0853C46.7661 23.9027 47.1879 22.5123 47.1879 21.09C47.1857 19.1842 46.4279 17.3569 45.0805 16.009C43.7332 14.661 41.9063 13.9024 40.0004 13.8994Z" fill="black"/>
<path d="M58.9618 37.0236C55.0016 35.3966 51.1444 33.5294 47.4118 31.4324C45.2474 29.8807 42.6626 29.0233 39.9999 28.9736C37.3372 29.0233 34.7525 29.8807 32.588 31.4324C28.8554 33.5294 24.9982 35.3966 21.0381 37.0236C20.5012 37.2278 20.0341 37.5814 19.6918 38.0426C19.3496 38.5039 19.1466 39.0535 19.1068 39.6265C19.0671 40.1994 19.1922 40.7718 19.4674 41.2759C19.7426 41.78 20.1564 42.1948 20.6599 42.4711C21.1053 42.7164 21.6053 42.8454 22.1137 42.8461C22.4637 42.846 22.8107 42.7824 23.1381 42.6586L31.7724 39.7136C31.8409 39.6896 31.9143 39.6833 31.9858 39.6954C32.0573 39.7075 32.1246 39.7375 32.1813 39.7826C32.2381 39.8278 32.2824 39.8866 32.3103 39.9535C32.3381 40.0205 32.3486 40.0934 32.3405 40.1655C31.6324 46.3911 29.953 61.2055 29.5762 65.0536C29.4645 66.0457 29.749 67.0418 30.3678 67.8252C30.9866 68.6086 31.8896 69.1162 32.8806 69.2374C33.8511 69.3209 34.818 69.0396 35.5923 68.4485C36.3667 67.8574 36.8928 66.9988 37.0681 66.0405C37.3806 64.7211 39.1024 56.5011 39.6574 53.843C39.6653 53.8038 39.6866 53.7686 39.7175 53.7433C39.7484 53.718 39.7872 53.7042 39.8271 53.7042C39.8671 53.7042 39.9058 53.718 39.9367 53.7433C39.9677 53.7686 39.9889 53.8038 39.9968 53.843C40.5518 56.4999 42.2718 64.718 42.5874 66.0405C42.7552 66.9237 43.2181 67.7237 43.9003 68.3092C44.5825 68.8947 45.4434 69.231 46.3418 69.263C46.4855 69.2631 46.6291 69.2546 46.7718 69.2374C47.7626 69.116 48.6655 68.6084 49.2842 67.825C49.9028 67.0416 50.1872 66.0456 50.0756 65.0536C49.6962 61.1786 47.9974 46.1886 47.2981 40.0411C47.2899 39.9691 47.3002 39.8962 47.328 39.8292C47.3557 39.7622 47.4001 39.7034 47.4568 39.6582C47.5135 39.613 47.5808 39.583 47.6523 39.571C47.7238 39.5589 47.7972 39.5652 47.8656 39.5893L56.8374 42.6518C57.5779 42.9099 58.39 42.8686 59.1005 42.5367C59.811 42.2047 60.3638 41.6084 60.6409 40.8747C60.9181 40.1411 60.8977 39.3283 60.5842 38.6094C60.2706 37.8906 59.6887 37.3227 58.9624 37.0268L58.9618 37.0236Z" fill="black"/>
<path d="M40.0147 8.89355C39.766 8.89355 39.5276 8.79478 39.3517 8.61897C39.1759 8.44315 39.0771 8.20469 39.0771 7.95605V1.76855C39.0771 1.51991 39.1759 1.28146 39.3517 1.10564C39.5276 0.929827 39.766 0.831055 40.0147 0.831055C40.2633 0.831055 40.5017 0.929827 40.6776 1.10564C40.8534 1.28146 40.9522 1.51991 40.9522 1.76855V7.95605C40.9522 8.20469 40.8534 8.44315 40.6776 8.61897C40.5017 8.79478 40.2633 8.89355 40.0147 8.89355Z" fill="black"/>
<path d="M40.0147 79.3125C39.766 79.3125 39.5276 79.2137 39.3517 79.0379C39.1759 78.8621 39.0771 78.6236 39.0771 78.375V72.1875C39.0771 71.9389 39.1759 71.7004 39.3517 71.5246C39.5276 71.3488 39.766 71.25 40.0147 71.25C40.2633 71.25 40.5017 71.3488 40.6776 71.5246C40.8534 71.7004 40.9522 71.9389 40.9522 72.1875V78.375C40.9522 78.6236 40.8534 78.8621 40.6776 79.0379C40.5017 79.2137 40.2633 79.3125 40.0147 79.3125Z" fill="black"/>
<path d="M65.6673 15.3079C65.4819 15.3083 65.3005 15.2538 65.1461 15.1511C64.9917 15.0485 64.8712 14.9024 64.7998 14.7313C64.7284 14.5601 64.7094 14.3717 64.7451 14.1898C64.7808 14.0078 64.8697 13.8405 65.0005 13.7091L69.3673 9.32223C69.5427 9.14595 69.7809 9.04655 70.0296 9.0459C70.2783 9.04526 70.517 9.14342 70.6933 9.31879C70.8696 9.49417 70.969 9.73239 70.9696 9.98105C70.9703 10.2297 70.8721 10.4684 70.6967 10.6447L66.3298 15.0316C66.243 15.1189 66.1398 15.1882 66.0261 15.2356C65.9124 15.283 65.7905 15.3076 65.6673 15.3079Z" fill="black"/>
<path d="M70.2632 71.1873C70.0152 71.1874 69.7772 71.0892 69.6014 70.9141L65.2145 66.5473C65.0383 66.3718 64.939 66.1335 64.9385 65.8849C64.938 65.6362 65.0362 65.3975 65.2117 65.2213C65.3871 65.0451 65.6254 64.9458 65.8741 64.9453C66.1227 64.9448 66.3614 65.0431 66.5376 65.2185L70.9245 69.5854C71.056 69.7163 71.1457 69.8833 71.1822 70.0653C71.2187 70.2473 71.2004 70.436 71.1296 70.6075C71.0588 70.779 70.9387 70.9257 70.7845 71.0289C70.6302 71.1321 70.4488 71.1872 70.2632 71.1873Z" fill="black"/>
<path d="M71.0049 40.9646C70.7562 40.9646 70.5178 40.8658 70.342 40.69C70.1662 40.5142 70.0674 40.2757 70.0674 40.0271C70.0674 39.7784 70.1662 39.54 70.342 39.3642C70.5178 39.1883 70.7562 39.0896 71.0049 39.0896L77.1955 39.0752C77.4441 39.0752 77.6826 39.174 77.8584 39.3498C78.0342 39.5256 78.133 39.7641 78.133 40.0127C78.133 40.2613 78.0342 40.4998 77.8584 40.6756C77.6826 40.8514 77.4441 40.9502 77.1955 40.9502L71.0049 40.9646Z" fill="black"/>
<path d="M14.3334 15.3079C14.2099 15.3079 14.0875 15.2835 13.9734 15.2361C13.8592 15.1887 13.7556 15.1192 13.6684 15.0316L9.30219 10.6447C9.12682 10.4684 9.02866 10.2297 9.0293 9.98105C9.02994 9.73239 9.12934 9.49417 9.30563 9.31879C9.48192 9.14342 9.72065 9.04526 9.96931 9.0459C10.218 9.04655 10.4562 9.14595 10.6316 9.32223L15.0003 13.7091C15.1309 13.8404 15.2198 14.0074 15.2556 14.1891C15.2914 14.3708 15.2725 14.5591 15.2015 14.7301C15.1304 14.9011 15.0103 15.0473 14.8562 15.1501C14.7022 15.2529 14.5211 15.3078 14.3359 15.3079H14.3334Z" fill="black"/>
<path d="M9.73711 71.1873C9.55153 71.1872 9.37014 71.1321 9.21591 71.0289C9.06167 70.9257 8.94155 70.779 8.87073 70.6075C8.79992 70.436 8.78162 70.2473 8.81813 70.0653C8.85465 69.8833 8.94434 69.7163 9.07586 69.5854L13.4627 65.2185C13.55 65.1316 13.6535 65.0628 13.7673 65.0159C13.8812 64.969 14.0032 64.9451 14.1263 64.9453C14.2494 64.9456 14.3713 64.9701 14.4849 65.0174C14.5986 65.0648 14.7018 65.1341 14.7887 65.2213C14.8755 65.3086 14.9444 65.4121 14.9913 65.5259C15.0381 65.6398 15.0621 65.7618 15.0619 65.8849C15.0616 66.008 15.0371 66.1299 14.9897 66.2435C14.9424 66.3572 14.8731 66.4604 14.7859 66.5473L10.399 70.9141C10.2232 71.0892 9.98518 71.1874 9.73711 71.1873Z" fill="black"/>
<path d="M8.99488 40.9646L2.80176 40.9502C2.55312 40.9502 2.31466 40.8514 2.13885 40.6756C1.96303 40.4998 1.86426 40.2613 1.86426 40.0127C1.86426 39.7641 1.96303 39.5256 2.13885 39.3498C2.31466 39.174 2.55312 39.0752 2.80176 39.0752L8.98926 39.0896C9.2379 39.0896 9.47636 39.1883 9.65217 39.3642C9.82799 39.54 9.92676 39.7784 9.92676 40.0271C9.92676 40.2757 9.82799 40.5142 9.65217 40.69C9.47636 40.8658 9.2379 40.9646 8.98926 40.9646H8.99488Z" fill="black"/>
</svg>
