<svg width="68" height="68" viewBox="0 0 68 68" fill="none" xmlns="http://www.w3.org/2000/svg">
<g clip-path="url(#clip0_289_1453)">
<path d="M44.2561 14.3589L33.9999 0L23.7439 14.3588C21.0192 18.1731 20.6231 23.1541 22.71 27.358C24.1243 30.2067 26.5164 32.3579 29.3686 33.4823C28.3311 32.7376 27.468 31.7391 26.8756 30.5461C25.5482 27.872 25.7984 24.7064 27.5285 22.2845L33.9999 13.2243L40.4712 22.2845C42.2014 24.7066 42.4516 27.872 41.124 30.5457C40.5318 31.7389 39.6684 32.7374 38.6301 33.4822C41.4833 32.3578 43.8756 30.2067 45.2898 27.358C47.3768 23.1541 46.9808 18.1731 44.2561 14.3589Z" fill="black"/>
<path d="M33.8568 30.9765C33.9562 30.9794 34.0391 30.9793 34.1392 30.9766C35.5936 30.9346 36.9022 30.0906 37.5557 28.7739C38.2273 27.4212 38.1022 25.8222 37.2293 24.6003L34.0003 20.0793L30.7712 24.6004C29.8984 25.8222 29.7734 27.4215 30.445 28.7743C31.0985 30.0908 32.4059 30.9346 33.8568 30.9765Z" fill="black"/>
<path d="M15.2275 0H11.2432V3.98438H7.25879V7.96875H11.2432V11.9531H15.2275V7.96875H19.2119V3.98438H15.2275V0Z" fill="black"/>
<path d="M49.7891 15.0422L52.606 12.2253L55.423 15.0422L52.606 17.8592L49.7891 15.0422Z" fill="black"/>
<path d="M55.1016 5.74585L57.9185 2.9289L60.7355 5.74585L57.9185 8.5628L55.1016 5.74585Z" fill="black"/>
<path d="M62.8745 29.541V37.3144L46.3858 55.2741L43.4508 52.5795L52.908 42.2787C51.8461 41.67 50.6393 41.3461 49.3825 41.3461C47.5085 41.3461 45.7453 42.0664 44.409 43.3764L35.9922 53.2126V67.9999H48.8749V63.3725L68 42.8012V22.707C65.042 23.5708 62.8745 26.3077 62.8745 29.541Z" fill="black"/>
<path d="M32.0078 67.9999V53.2126L23.591 43.3762C22.2547 42.0663 20.4916 41.3459 18.6175 41.3459C17.3607 41.3459 16.1539 41.6699 15.092 42.2785L24.5492 52.5794L21.6142 55.274L5.1255 37.3144V29.541C5.1255 26.3077 2.95813 23.5708 0 22.707V42.801L19.1251 63.3725V67.9999H32.0078Z" fill="black"/>
</g>
<defs>
<clipPath id="clip0_289_1453">
<rect width="68" height="68" fill="white"/>
</clipPath>
</defs>
</svg>
