<svg width="76" height="76" viewBox="0 0 76 76" fill="none" xmlns="http://www.w3.org/2000/svg">
<g clip-path="url(#clip0_324_361)">
<path d="M22.9211 43.7416C22.1197 41.9965 22.26 39.9896 23.2964 38.373C24.3326 36.7563 26.0979 35.7912 28.0182 35.7909L29.9816 35.7906C30.674 35.7906 30.9573 35.2961 31.0471 35.0836C31.1367 34.871 31.293 34.3231 30.8097 33.8272L29.5444 32.5282C27.7091 30.6446 27.4363 27.6892 28.8955 25.5012L29.424 24.7088C29.7246 24.258 29.6179 23.8314 29.5274 23.6172C29.437 23.403 29.2055 23.0288 28.6728 22.93L22.0599 21.7031C17.8177 25.8491 15.1797 31.6299 15.1797 38.0161C15.1797 41.7984 16.1056 45.3681 17.7413 48.5121L22.5315 45.1727C22.9909 44.8524 23.1548 44.2506 22.9211 43.7416Z" fill="black"/>
<path d="M44.0556 48.7126C44.3695 48.8287 44.7246 48.7688 44.9825 48.556L47.5994 46.3998C49.0398 45.2132 50.9572 44.8553 52.7289 45.4424L58.7774 47.448C59.4622 45.9456 59.9881 44.3564 60.3348 42.7019L49.494 39.1311C47.7327 38.5508 46.3296 37.2298 45.6444 35.5065C44.9595 33.7833 45.0726 31.8596 45.955 30.2286L46.4634 29.2888C46.8532 28.5678 46.7052 27.6763 46.1034 27.1204C44.5096 25.6478 43.8005 23.4962 44.2068 21.3648C44.5509 19.559 45.6462 18.0368 47.2029 17.1367C44.3861 15.8902 41.2726 15.1963 37.9996 15.1963C33.9795 15.1963 30.1997 16.2426 26.9158 18.0752L29.4851 18.5519C31.3444 18.8967 32.8938 20.1428 33.6296 21.885C34.3653 23.6271 34.1781 25.6065 33.1288 27.1799L32.6002 27.9723C32.2993 28.4234 32.3556 29.0327 32.7339 29.4211L33.9992 30.72C35.6011 32.3641 36.042 34.6995 35.1499 36.8146C34.2576 38.9297 32.2773 40.2438 29.982 40.2439L28.0187 40.2442C27.4479 40.2442 27.1478 40.6165 27.0451 40.7765C26.9426 40.9365 26.7296 41.3648 26.9677 41.8833C28.1016 44.3524 27.3068 47.2722 25.078 48.826L20.1729 52.2454C24.1216 57.1824 30.0738 60.4506 36.7863 60.8039L36.7858 53.7731C36.7857 52.0082 37.6505 50.3525 39.0989 49.3442C40.5477 48.3359 42.4008 48.1 44.0556 48.7126Z" fill="black"/>
<path d="M50.4314 49.8367L47.8146 51.9929C46.3373 53.2102 44.3048 53.5536 42.5093 52.8886C42.1076 52.7397 41.7944 52.8939 41.6435 52.9989C41.4925 53.1039 41.2393 53.3443 41.2393 53.7727L41.2397 60.6049C47.4929 59.7121 52.9364 56.2755 56.4857 51.3794L51.3278 49.6691C51.0183 49.5668 50.683 49.6292 50.4314 49.8367Z" fill="black"/>
<path d="M50.3806 31.4075L49.8722 32.3473C49.3447 33.3556 49.8109 34.5303 50.8877 34.9016L60.818 38.1725C60.8184 38.1203 60.8201 38.0685 60.8201 38.0162C60.8201 30.6907 57.3497 24.1614 51.9675 19.9832L49.695 20.8628C48.8581 21.1867 48.6376 21.9047 48.5817 22.1983C48.5257 22.492 48.4668 23.2406 49.1259 23.8498C51.2234 25.7877 51.7394 28.8955 50.3806 31.4075Z" fill="black"/>
<path d="M75.5959 36.7369C75.4262 36.4951 71.3641 30.7484 64.7678 24.9355C62.7032 23.1161 60.6153 21.4925 58.5205 20.0718C62.7225 24.8711 65.2731 31.1509 65.2731 38.0159C65.2731 44.881 62.7225 51.1608 58.5205 55.9601C60.6153 54.5394 62.7032 52.9158 64.7678 51.0964C71.3641 45.2834 75.4264 39.5368 75.5959 39.295C76.1347 38.5275 76.1347 37.5046 75.5959 36.7369Z" fill="black"/>
<path d="M17.4795 20.072C15.3847 21.4927 13.2968 23.1163 11.2322 24.9357C4.63593 30.7487 0.573637 36.4953 0.404121 36.7371C-0.134707 37.5048 -0.134707 38.5276 0.404121 39.2953C0.573637 39.5371 4.63593 45.2837 11.2322 51.0966C13.2968 52.916 15.3847 54.5397 17.4795 55.9604C13.2775 51.1611 10.7269 44.8813 10.7269 38.0162C10.7269 31.1511 13.2775 24.8713 17.4795 20.072Z" fill="black"/>
</g>
<defs>
<clipPath id="clip0_324_361">
<rect width="76" height="76" fill="white"/>
</clipPath>
</defs>
</svg>
