<svg width="67" height="67" viewBox="0 0 67 67" fill="none" xmlns="http://www.w3.org/2000/svg">
<g clip-path="url(#clip0_369_197)">
<path d="M29.0752 16.2335L26.9396 28.3214C26.8766 28.6916 26.6692 29.0217 26.363 29.2389C26.0567 29.4562 25.6767 29.5429 25.3065 29.48C24.9363 29.4171 24.6062 29.2096 24.389 28.9034C24.1717 28.5971 24.085 28.2171 24.1479 27.8469L27.4979 9.08686C27.0678 8.67989 26.5273 8.4086 25.944 8.30682C25.3606 8.20505 24.7602 8.2773 24.2177 8.51457C23.6315 11.8227 24.0921 9.19853 21.6494 23.0871C21.6182 23.2704 21.5513 23.4457 21.4523 23.6032C21.3534 23.7606 21.2244 23.897 21.0728 24.0046C20.9211 24.1122 20.7498 24.1888 20.5685 24.2302C20.3872 24.2715 20.1996 24.2768 20.0163 24.2456C19.8329 24.2145 19.6576 24.1475 19.5002 24.0486C19.3427 23.9496 19.2063 23.8206 19.0987 23.669C18.9912 23.5173 18.9145 23.346 18.8732 23.1647C18.8318 22.9834 18.8265 22.7958 18.8577 22.6125C21.4121 8.08187 20.7281 12.0042 21.9704 5.01103C21.5373 4.59911 20.991 4.3259 20.4017 4.22642C19.8123 4.12695 19.2066 4.20574 18.6623 4.4527L16.2196 18.411C16.1567 18.7812 15.9492 19.1113 15.643 19.3285C15.3367 19.5458 14.9567 19.6325 14.5865 19.5696C14.2163 19.5066 13.8862 19.2992 13.669 18.993C13.4517 18.6867 13.365 18.3066 13.4279 17.9364L15.075 8.45874C14.6712 8.11266 14.1842 7.8779 13.6619 7.77764C13.1397 7.67738 12.6003 7.7151 12.0971 7.88707C11.5939 8.05903 11.1442 8.3593 10.7926 8.7582C10.4409 9.15711 10.1994 9.64085 10.0919 10.1617L8.375 20.0442C11.1667 18.9275 15.3542 23.6035 13.4977 28.3354L12.5625 30.5548C14.8198 31.2353 16.9141 32.3701 18.7168 33.8895C20.5194 35.4089 21.9924 37.2809 23.0452 39.3904C23.1807 39.7158 23.1881 40.0803 23.0659 40.4109C22.9437 40.7415 22.701 41.0136 22.3865 41.1727C22.0719 41.3317 21.7089 41.3658 21.3702 41.2683C21.0316 41.1707 20.7423 40.9486 20.5606 40.6467C19.5697 38.6673 18.1408 36.9397 16.3826 35.595C14.6243 34.2502 12.5827 33.3238 10.4129 32.8858C10.2115 32.8469 10.0211 32.764 9.85528 32.6431C9.6895 32.5222 9.55241 32.3662 9.45378 32.1863C9.35515 32.0064 9.29741 31.8069 9.28465 31.6021C9.2719 31.3973 9.30446 31.1922 9.38 31.0014C10.7758 27.3025 11.1248 26.8139 11.1248 25.8787C11.1248 24.0223 9.72896 21.9844 7.8725 22.5148C7.035 22.766 7.17458 22.7939 3.02896 26.9396C1.12841 29.0341 0.0521938 31.747 0 34.5748C0 39.1671 7.64917 43.7454 7.64917 48.3377C7.64917 50.8223 5.40188 57.3408 3.33604 62.8125H24.6783C26.3394 48.4912 32.1042 48.8542 32.1042 39.6835V19.2904C32.1006 18.4856 31.7812 17.7144 31.2147 17.1427C30.6482 16.571 29.88 16.2445 29.0752 16.2335Z" fill="black"/>
<path d="M66.9997 34.5748C66.9997 29.1869 63.566 26.5628 60.0206 23.0871C59.7476 22.8109 59.4053 22.6132 59.0295 22.5148C56.8241 21.8588 55.1352 24.9157 56.0564 27.3165C57.6058 31.2109 57.857 31.4342 57.4522 32.188C56.7683 33.4582 54.6606 32.523 50.4731 35.5798C46.132 38.9159 46.8439 41.4144 45.0433 41.4144C44.8054 41.4137 44.5715 41.3522 44.3641 41.2357C44.1566 41.1192 43.9824 40.9516 43.8579 40.7488C43.7334 40.546 43.6629 40.3148 43.6529 40.077C43.6429 39.8393 43.6939 39.603 43.801 39.3905C44.8708 37.2653 46.3675 35.3837 48.1977 33.8634C50.0278 32.3431 52.1519 31.2168 54.4372 30.5548C53.6492 29.1113 53.1736 27.5181 53.0414 25.8788C53.0414 22.6684 55.8331 18.8996 58.6247 20.0442L56.9079 10.1617C56.8104 9.62281 56.57 9.11998 56.2117 8.70579C55.8534 8.2916 55.3905 7.98126 54.8712 7.80722C54.352 7.63319 53.7955 7.60184 53.26 7.71646C52.7245 7.83109 52.2296 8.08747 51.827 8.4588L53.4741 17.9365C53.5053 18.1198 53.5 18.3075 53.4587 18.4887C53.4173 18.67 53.3407 18.8414 53.2331 18.993C53.1255 19.1447 52.9891 19.2736 52.8317 19.3726C52.6743 19.4715 52.4989 19.5385 52.3156 19.5696C52.1323 19.6008 51.9446 19.5955 51.7634 19.5542C51.5821 19.5128 51.4107 19.4362 51.2591 19.3286C51.1074 19.221 50.9785 19.0846 50.8795 18.9272C50.7806 18.7698 50.7136 18.5944 50.6825 18.4111L48.2398 4.45276C47.6951 4.20767 47.0898 4.1299 46.5009 4.2293C45.9119 4.32871 45.3657 4.60081 44.9316 5.01109C46.1739 11.9903 45.462 7.97026 48.0443 22.6126C48.0755 22.7959 48.0702 22.9835 48.0289 23.1648C47.9875 23.3461 47.9109 23.5174 47.8033 23.6691C47.6957 23.8207 47.5593 23.9497 47.4019 24.0486C47.2445 24.1476 47.0691 24.2145 46.8858 24.2457C46.7025 24.2768 46.5148 24.2716 46.3336 24.2302C46.1523 24.1889 45.9809 24.1122 45.8293 24.0046C45.6776 23.8971 45.5487 23.7607 45.4497 23.6032C45.3508 23.4458 45.2838 23.2704 45.2527 23.0871C42.8658 8.93339 43.3683 11.8228 42.782 8.51464C42.2395 8.27737 41.6391 8.20511 41.0558 8.30689C40.4724 8.40866 39.932 8.67996 39.5018 9.08693L42.81 27.9167C42.8411 28.1 42.8359 28.2877 42.7945 28.4689C42.7532 28.6502 42.6765 28.8216 42.5689 28.9732C42.4613 29.1249 42.3249 29.2538 42.1675 29.3528C42.0101 29.4517 41.8347 29.5187 41.6514 29.5498C41.4681 29.581 41.2805 29.5758 41.0992 29.5344C40.9179 29.493 40.7466 29.4164 40.5949 29.3088C40.4433 29.2012 40.3143 29.0648 40.2153 28.9074C40.1164 28.75 40.0495 28.5746 40.0183 28.3913L37.8827 16.3034C37.0971 16.3245 36.3496 16.646 35.7939 17.2017C35.2382 17.7574 34.9167 18.5049 34.8956 19.2905C34.8956 40.228 34.1 43.5501 37.4918 48.4773C40.2171 52.8045 41.8726 57.7185 42.3214 62.8126H63.6637C61.5979 57.3409 59.3506 50.8223 59.3506 48.3378C59.3506 43.7455 66.9997 39.1671 66.9997 34.5748Z" fill="black"/>
</g>
<defs>
<clipPath id="clip0_369_197">
<rect width="67" height="67" fill="white"/>
</clipPath>
</defs>
</svg>
