<svg width="74" height="74" viewBox="0 0 74 74" fill="none" xmlns="http://www.w3.org/2000/svg">
<path d="M36.9687 48.7659L41.6292 47.8862L45.5563 43.8237C47.443 41.8719 47.9394 38.9628 46.8065 36.4958C45.0213 32.608 40.0617 31.4264 36.7153 34.0918L36.5295 34.2397L36.3438 34.0918C32.9974 31.4264 28.0377 32.608 26.2525 36.4958C25.1198 38.9628 25.6161 41.8719 27.5028 43.8237L30.828 47.2635C35.5402 48.9531 36.8277 48.7922 36.9687 48.7659Z" fill="black"/>
<path d="M5.18523 59.6692L0 59.6509V73.394L5.18523 73.3921V59.6692Z" fill="black"/>
<path d="M67.6616 51.3906C66.299 51.2343 64.9464 51.6603 63.7505 52.6239L55.2514 59.4711L55.2486 59.4679C54.3093 60.1771 53.2034 60.6594 52.026 60.8549L36.8329 63.9036L35.9869 59.6873L51.2609 56.6225L51.3034 56.6157C51.7844 56.5391 52.2278 56.3546 52.6082 56.0784L52.841 55.8909C53.0279 55.7242 53.1958 55.5327 53.3404 55.3187C53.8161 54.6158 53.9746 53.773 53.7868 52.9453C53.4234 51.3433 51.8746 50.3271 50.2602 50.6336L37.7664 52.9919C36.6086 53.2111 34.3265 53.2182 27.9114 50.7695C24.4108 49.4332 20.4012 50.038 17.4475 52.348L9.48535 58.5749V73.3909L48.6248 73.3772L71.367 53.4957C70.3347 52.2916 69.0299 51.5477 67.6616 51.3906Z" fill="black"/>
<path d="M68.0801 13.7247L73.2652 13.7431V0L68.0801 0.00186349V13.7247Z" fill="black"/>
<path d="M63.7801 0.00341797L24.6406 0.0170358L1.89844 19.8985C2.93081 21.1024 4.23554 21.8462 5.60377 22.0035C6.96627 22.1599 8.31902 21.7339 9.51495 20.7703L18.014 13.923L18.0168 13.9263C18.9558 13.2173 20.0616 12.7348 21.2389 12.5391L36.4325 9.49044L37.2785 13.7068L22.0046 16.7715L21.9622 16.7784C21.4807 16.8551 21.0369 17.0397 20.6563 17.3165L20.4254 17.5026C20.238 17.6694 20.07 17.8612 19.925 18.0755C19.4495 18.7784 19.291 19.6212 19.4786 20.4488C19.842 22.0509 21.3908 23.0671 23.0052 22.7606L35.499 20.4022C35.7677 20.3514 36.0968 20.312 36.5237 20.312C37.938 20.312 40.4267 20.7438 45.354 22.6246C48.8547 23.9609 52.8643 23.3562 55.8179 21.0461L63.7801 14.8192V0.00341797Z" fill="black"/>
</svg>
