<svg width="85" height="85" viewBox="0 0 85 85" fill="none" xmlns="http://www.w3.org/2000/svg">
<path d="M82.1657 75.1104V63.7629H74.1375C72.6052 63.7604 71.1147 63.2635 69.8875 62.3462C68.3065 61.1591 67.7625 60.7482 67.5485 60.5853C66.9714 60.1512 66.3124 59.8385 65.6113 59.6659C64.9101 59.4932 64.1812 59.4643 63.4685 59.5809L40.8444 63.2897C40.4441 63.3408 40.073 63.5263 39.7919 63.8159C39.5109 64.1054 39.3365 64.4819 39.2974 64.8835C39.2927 65.1053 39.3319 65.3258 39.4128 65.5323C39.4937 65.7389 39.6147 65.9274 39.7687 66.087C39.9228 66.2466 40.1069 66.3741 40.3105 66.4622C40.5141 66.5504 40.7331 66.5974 40.9549 66.6005H60.9157C61.2914 66.6005 61.6518 66.7497 61.9174 67.0154C62.1831 67.2811 62.3324 67.6414 62.3324 68.0172C62.3324 68.3929 62.1831 68.7532 61.9174 69.0189C61.6518 69.2846 61.2914 69.4338 60.9157 69.4338H55.7675L49.8034 74.4871C49.3558 74.8634 48.7959 75.0801 48.2116 75.1032C47.6274 75.1263 47.052 74.9544 46.5762 74.6146L28.3324 61.3064C28.0601 61.1141 27.7398 61.0012 27.4071 60.9802C27.0745 60.9592 26.7425 61.0309 26.4482 61.1874C26.1655 61.3225 25.9266 61.5345 25.7587 61.799C25.5908 62.0636 25.5009 62.3701 25.499 62.6834C25.498 62.9378 25.553 63.1893 25.6603 63.4199C25.7675 63.6506 25.9243 63.8548 26.1195 64.0179L46.8496 80.6737C47.7361 81.3708 48.7802 81.8398 49.8901 82.0397C51.0001 82.2395 52.1421 82.164 53.2161 81.8197L70.8494 75.5227C71.6131 75.2494 72.4182 75.1099 73.2294 75.1104H82.1657Z" fill="black"/>
<path d="M4.2487 26.9164C3.87297 26.9164 3.51264 27.0657 3.24696 27.3314C2.98129 27.597 2.83203 27.9574 2.83203 28.3331V45.3331C2.83203 45.7088 2.98129 46.0692 3.24696 46.3348C3.51264 46.6005 3.87297 46.7498 4.2487 46.7498H11.332C15.1584 46.6017 18.9768 47.2017 22.5733 48.5163C24.3995 49.2459 26.3515 49.6084 28.3179 49.5831H45.842C46.3934 49.6043 46.9334 49.4229 47.3601 49.0731C47.7868 48.7234 48.0708 48.2295 48.1583 47.6848C48.1901 47.3879 48.159 47.0876 48.0671 46.8035C47.9751 46.5194 47.8243 46.2579 47.6244 46.036C47.4246 45.8141 47.1802 45.6368 46.9073 45.5157C46.6344 45.3946 46.339 45.3324 46.0404 45.3331C45.6646 45.3331 45.3043 45.1838 45.0386 44.9182C44.773 44.6525 44.6237 44.2921 44.6237 43.9164C44.6237 43.5407 44.773 43.1804 45.0386 42.9147C45.3043 42.649 45.6646 42.4998 46.0404 42.4998H47.2587C47.81 42.5209 48.35 42.3395 48.7768 41.9898C49.2035 41.6401 49.4874 41.1462 49.5749 40.6014C49.6068 40.3045 49.5757 40.0042 49.4837 39.7202C49.3918 39.4361 49.2409 39.1746 49.0411 38.9527C48.8413 38.7308 48.5969 38.5535 48.324 38.4324C48.051 38.3113 47.7556 38.249 47.457 38.2498C47.0813 38.2498 46.721 38.1005 46.4553 37.8348C46.1896 37.5691 46.0404 37.2088 46.0404 36.8331C46.0404 36.4574 46.1896 36.097 46.4553 35.8314C46.721 35.5657 47.0813 35.4164 47.457 35.4164H48.6754C49.2267 35.4376 49.7667 35.2562 50.1934 34.9065C50.6202 34.5567 50.9041 34.0628 50.9916 33.5181C51.0235 33.2212 50.9924 32.9209 50.9004 32.6368C50.8084 32.3527 50.6576 32.0912 50.4578 31.8693C50.2579 31.6475 50.0136 31.4702 49.7406 31.3491C49.4677 31.2279 49.1723 31.1657 48.8737 31.1664C48.498 31.1664 48.1376 31.0172 47.872 30.7515C47.6063 30.4858 47.457 30.1255 47.457 29.7498C47.457 29.374 47.6063 29.0137 47.872 28.748C48.1376 28.4823 48.498 28.3331 48.8737 28.3331C49.1724 28.3338 49.468 28.2716 49.741 28.1504C50.0141 28.0292 50.2585 27.8517 50.4583 27.6297C50.6582 27.4077 50.809 27.146 50.9009 26.8617C50.9928 26.5775 51.0237 26.277 50.9916 25.98C50.9302 25.5511 50.7408 25.1506 50.4481 24.8311C50.1554 24.5116 49.7731 24.288 49.3511 24.1893C49.1322 24.1214 48.9046 24.0856 48.6754 24.0831H31.1654C30.7896 24.0831 30.4293 23.9338 30.1636 23.6682C29.898 23.4025 29.7487 23.0421 29.7487 22.6664C29.7487 22.2907 29.898 21.9304 30.1636 21.6647C30.4293 21.399 30.7896 21.2498 31.1654 21.2498H40.2065L35.9494 16.9998H28.9979C27.6952 17.0089 26.4071 17.275 25.2074 17.7829C24.0077 18.2907 22.92 19.0303 22.0066 19.9592C20.5528 21.4031 18.9867 22.7295 17.3231 23.9258C14.5024 25.9018 11.135 26.9473 7.6912 26.9164H4.2487Z" fill="black"/>
</svg>
