<svg width="78" height="78" viewBox="0 0 78 78" fill="none" xmlns="http://www.w3.org/2000/svg">
<g clip-path="url(#clip0_324_371)">
<path d="M73.7285 61.0446C72.965 58.2475 70.2327 56.4871 67.3771 56.9239L45.4945 60.2911V29.554H47.2403L51.2473 49.5643C51.4879 50.7646 52.3556 51.7416 53.5134 52.1331L67.1659 56.6833C67.528 56.7998 67.885 56.8546 68.2444 56.8546C69.6749 56.8546 71.0039 55.9574 71.4824 54.5233C72.08 52.7334 71.1131 50.8041 69.3251 50.2046L57.5525 46.2823L53.3847 25.4704C53.0675 23.8764 51.6642 22.7295 50.0411 22.7295H42.7925C41.6443 21.8505 40.2278 21.3076 38.6677 21.3076C37.1099 21.3076 35.6903 21.8505 34.5448 22.7295H27.2957C25.6686 22.7295 24.2702 23.8764 23.9526 25.4704L19.7829 46.2823L8.00902 50.2046C6.2278 50.8041 5.25449 52.7334 5.85216 54.5233C6.44575 56.304 8.35294 57.2511 10.17 56.6833L23.8225 52.1331C24.9803 51.7452 25.8493 50.7646 26.0895 49.5643L30.0937 29.554H31.841V60.2911L9.95745 56.9239C7.10051 56.4871 4.36683 58.2475 3.60422 61.0446C2.84026 63.8318 4.29251 66.7526 6.97862 67.8211L29.7303 76.9234C32.6376 78.0915 35.9517 76.6751 37.1194 73.7569C37.2667 73.3926 37.3731 73.0256 37.4416 72.6613L37.7995 72.7134C38.3813 72.8049 38.9577 72.8049 39.5354 72.7134L39.8939 72.6613C39.9641 73.0256 40.0701 73.3926 40.216 73.7569C41.1032 75.9809 43.237 77.3325 45.4972 77.3325C46.1991 77.3325 46.9182 77.2016 47.6074 76.9238L70.3564 67.8215C73.037 66.7526 74.4902 63.8322 73.7285 61.0446Z" fill="black"/>
<path d="M38.6666 20.7843C44.4103 20.7843 49.0621 16.1375 49.0621 10.3865C49.0621 4.64677 44.4099 0 38.6666 0C32.9232 0 28.2715 4.64677 28.2715 10.3865C28.2715 16.1375 32.9228 20.7843 38.6666 20.7843Z" fill="black"/>
</g>
<defs>
<clipPath id="clip0_324_371">
<rect width="77.333" height="77.333" fill="white"/>
</clipPath>
</defs>
</svg>
