<svg width="100" height="100" viewBox="0 0 100 100" fill="none" xmlns="http://www.w3.org/2000/svg">
<path d="M25.5977 48.4776C25.5977 51.6776 28.2199 54.2555 31.3754 54.2555C34.7088 54.2555 37.8643 52.833 40.6643 49.9889C41.1532 49.5443 41.5977 49.011 42.0423 48.4776C41.5977 47.9443 41.1532 47.4555 40.6643 46.9664C37.8643 44.1664 34.7088 42.6997 31.3754 42.6997C28.2199 42.6997 25.5977 45.3222 25.5977 48.4776Z" fill="black"/>
<path d="M74.4889 48.4776C74.4889 45.3222 71.9114 42.6997 68.7114 42.6997C65.5114 42.6997 62.2668 44.1664 59.4668 46.9664C58.978 47.4555 58.5335 47.9443 58.0889 48.4776C58.5335 49.011 58.978 49.5443 59.4668 49.9889C62.2668 52.833 65.378 54.2555 68.7114 54.2555C72.0447 54.2555 74.4889 51.6776 74.4889 48.4776Z" fill="black"/>
<path d="M68.7106 33.8091C61.5548 33.8091 56.3106 37.5868 53.1548 40.698C53.1106 40.7424 53.066 40.7868 53.0214 40.8757C53.5548 41.5868 54.0439 42.2534 54.4439 42.8313C54.9327 43.5868 55.2881 44.1647 55.5548 44.6092C55.7773 44.3426 56.0439 44.1201 56.3106 43.8534C59.9993 40.1646 64.1773 38.2535 68.7106 38.2535C74.3548 38.2535 78.9327 42.8759 78.9327 48.4759C78.9327 54.0759 74.3548 58.698 68.7106 58.698C64.1773 58.698 59.9993 56.8313 56.3106 53.1426C55.2881 52.1201 54.3106 51.0092 53.466 49.7647L52.5773 48.4759L51.6439 46.8313C51.4214 46.4759 51.1106 45.9426 50.7106 45.3201C50.1327 44.4313 49.3327 43.3647 48.3548 42.2092C47.9106 41.7201 47.4214 41.2313 46.9327 40.698C43.7773 37.5868 38.5327 33.8091 31.3327 33.8091C23.2882 33.8091 16.666 40.3868 16.666 48.4759C16.666 56.5647 23.2882 63.1426 31.3327 63.1426C38.5327 63.1426 43.7773 59.4092 46.9327 56.298C46.9773 56.2534 47.0214 56.1647 47.066 56.1201C46.5327 55.4092 46.0439 54.7426 45.6439 54.1201C45.1548 53.4093 44.7993 52.7867 44.5327 52.3426C44.266 52.6092 44.0439 52.8759 43.7773 53.1426C40.0882 56.8313 35.9104 58.698 31.3327 58.698C25.7327 58.698 21.1105 54.1201 21.1105 48.4759C21.1105 42.8313 25.7327 38.2535 31.3327 38.2535C35.9104 38.2535 40.0882 40.1646 43.7773 43.8534C44.7993 44.8759 45.7327 45.9867 46.6214 47.2313L47.5106 48.4759V48.5647L48.3993 50.1201C48.6214 50.5201 48.9327 51.0534 49.3327 51.6759C49.9106 52.5647 50.7106 53.6313 51.6881 54.7867C52.1327 55.2759 52.6214 55.7647 53.1106 56.298C56.266 59.4092 61.5106 63.1426 68.666 63.1426C76.7548 63.1426 83.3327 56.5647 83.3327 48.4759C83.3327 40.3868 76.7548 33.8091 68.666 33.8091H68.7106Z" fill="black"/>
<path d="M32.71 67.5451C38.71 72.5676 45.2431 76.301 50.0877 78.3897C54.9323 76.301 61.421 72.5676 67.421 67.5451C59.421 67.1451 53.5989 63.0118 50.0431 59.501C46.4877 63.0118 40.71 67.1451 32.71 67.5451Z" fill="black"/>
<path d="M50.0426 37.4997C53.7759 33.8108 60.0426 29.3663 68.7092 29.3663C74.3984 29.3663 79.5092 31.8552 82.9759 35.7663C81.2426 27.2775 73.7317 20.833 64.7092 20.833C59.9092 20.833 55.3317 24.0775 51.5984 27.6775C50.7538 28.5219 49.3759 28.5219 48.4872 27.6775C44.7984 24.0775 40.176 20.833 35.4205 20.833C26.3983 20.833 18.8427 27.2775 17.1094 35.7663C20.6205 31.8552 25.7316 29.3663 31.376 29.3663C40.0871 29.3663 46.3092 33.8108 50.0426 37.4997Z" fill="black"/>
</svg>
